<?xml version="1.0" encoding="UTF-8"?>
<svg id="Layer_1" xmlns="http://www.w3.org/2000/svg" viewBox="0 0 401.95 64.79">
  <defs>
    <style>
      .cls-1 {
        fill: #010101;
      }
    </style>
  </defs>
  <path class="cls-1" d="M20.33,8.64c-9.05,0-14.84-.29-17.37-.87-.93,3.95-1.92,7.48-2.96,10.6,0,.46.32.68.95.68.32,0,.52-.16.61-.46.65-2.36,2.05-4.27,4.18-5.75,2.14-1.48,4.52-2.22,7.14-2.22h2.18c.93,0,1.56.17,1.9.5.33.33.5.95.5,1.86v31.47c0,1.92-.4,3.2-1.21,3.84s-2.34,1.11-4.59,1.39c-.3.04-.45.32-.45.84,0,.58.15.87.45.87,1.25,0,2.73-.06,4.46-.19,1.66-.12,3.06-.19,4.2-.19s2.47.06,4.12.19c1.73.12,3.22.19,4.46.19.3,0,.45-.29.45-.87,0-.52-.15-.79-.45-.84-1.54-.21-2.73-.48-3.56-.82-.83-.34-1.4-.81-1.73-1.39-.33-.59-.49-1.6-.49-3.02V12.98c0-.91.17-1.53.5-1.86.33-.33.96-.5,1.87-.5h2.62c2.92,0,5.12.6,6.61,1.81,1.49,1.21,2.63,3.27,3.43,6.18.07.29.26.43.56.43.67,0,1-.2,1-.59-.86-4.44-1.41-8.01-1.67-10.7-2.53.58-8.44.87-17.73.87Z"/>
  <path class="cls-1" d="M77.48,12.18c.32-.58.88-1.04,1.7-1.38.82-.34,2.01-.62,3.57-.82.3,0,.45-.28.45-.85s-.15-.85-.45-.85c-1.25,0-2.72.06-4.44.19-1.64.12-3.02.19-4.16.19s-2.52-.06-4.16-.19c-1.73-.12-3.23-.19-4.49-.19-.3,0-.45.28-.45.85s.15.85.45.85c1.58.21,2.78.48,3.6.82.82.34,1.39.81,1.72,1.4.33.59.49,1.61.49,3.06v29.19c0,1.92-.4,3.21-1.21,3.85-.81.64-2.34,1.11-4.59,1.4-.3.04-.45.32-.45.84,0,.58.15.87.45.87,1.26,0,2.76-.06,4.49-.19,1.64-.12,3.02-.19,4.16-.19s2.52.06,4.16.19c1.71.12,3.19.19,4.44.19.3,0,.45-.29.45-.87,0-.52-.16-.79-.47-.84-1.56-.21-2.75-.48-3.56-.82-.81-.34-1.37-.81-1.69-1.4-.32-.59-.47-1.6-.47-3.02V15.25c0-1.47.16-2.49.47-3.07Z"/>
  <path class="cls-1" d="M155.99,8.27c-.84,0-2.02.06-3.54.19-1.58.12-2.84.19-3.77.19-.86,0-2.06-.06-3.63-.19-1.67-.12-3.01-.19-4.02-.19-.3,0-.45.29-.45.87,0,.52.15.8.45.84,2.44.31,4.11.82,5.01,1.54.9.71,1.35,1.95,1.35,3.71v26.43l-26.87-33.39c-.67,0-1.47.06-2.4.19-.91.12-1.69.19-2.34.19-.52,0-1.3-.06-2.34-.19-1.17-.12-2.08-.19-2.73-.19-.3,0-.45.28-.45.85s.13.85.39.85c2.38.33,4.01.83,4.88,1.49.87.66,1.31,1.83,1.31,3.51v.28l-.98,29.19c-.06,1.88-.51,3.15-1.37,3.8-.86.65-2.44,1.13-4.74,1.44-.33.04-.5.32-.5.84,0,.58.15.87.45.87.84,0,2.02-.06,3.54-.19,1.58-.12,2.84-.19,3.77-.19.86,0,2.07.06,3.65.19,1.69.12,3.02.19,3.99.19.3,0,.45-.29.45-.87,0-.52-.15-.79-.45-.84-2.33-.31-3.93-.79-4.83-1.44-.89-.65-1.34-1.76-1.34-3.33,0-.14,0-.3.03-.46l.39-28.68,28.76,36.11c.37.33.67.5.89.5.45,0,.67-.21.67-.62l.61-36.54c.04-1.88.49-3.16,1.35-3.82.86-.66,2.46-1.14,4.79-1.43.3-.04.45-.32.45-.84,0-.58-.15-.87-.45-.87Z"/>
  <path class="cls-1" d="M211.95,39.17c-.28,0-.46.08-.53.25-1.54,3.7-3.11,6.23-4.69,7.58-1.58,1.35-3.52,2.03-5.8,2.03h-5.52c-2.16,0-3.24-1.22-3.24-3.66V15.25c0-1.47.16-2.49.47-3.07.32-.58.88-1.04,1.7-1.38.82-.34,2.01-.62,3.57-.82.3,0,.45-.28.45-.85s-.15-.85-.45-.85c-1.25,0-2.72.06-4.44.19-1.64.12-3.02.19-4.16.19s-2.53-.06-4.19-.19c-1.73-.12-3.22-.19-4.46-.19-.3,0-.45.28-.45.85s.15.85.45.85c1.58.21,2.78.48,3.6.82.82.34,1.39.81,1.72,1.4.33.59.49,1.61.49,3.06v29.19c0,1.92-.4,3.21-1.21,3.85-.81.64-2.34,1.11-4.59,1.4-.3.04-.45.32-.45.84,0,.58.15.87.45.87,7.03-.25,12.03-.37,15.01-.37s8.08.12,15.21.37c.5-3.97,1.19-7.77,2.06-11.41,0-.21-.11-.39-.32-.56-.21-.17-.44-.25-.68-.25Z"/>
  <path class="cls-1" d="M250.9,12.18c.32-.58.88-1.04,1.7-1.38.82-.34,2.01-.62,3.57-.82.3,0,.45-.28.45-.85s-.15-.85-.45-.85c-1.25,0-2.72.06-4.44.19-1.64.12-3.02.19-4.16.19s-2.52-.06-4.16-.19c-1.73-.12-3.23-.19-4.49-.19-.3,0-.45.28-.45.85s.15.85.45.85c1.58.21,2.78.48,3.6.82.82.34,1.39.81,1.72,1.4.33.59.49,1.61.49,3.06v29.19c0,1.92-.41,3.21-1.21,3.85-.81.64-2.34,1.11-4.59,1.4-.3.04-.45.32-.45.84,0,.58.15.87.45.87,1.26,0,2.76-.06,4.49-.19,1.64-.12,3.02-.19,4.16-.19s2.52.06,4.16.19c1.71.12,3.19.19,4.44.19.3,0,.45-.29.45-.87,0-.52-.16-.79-.47-.84-1.56-.21-2.75-.48-3.56-.82-.81-.34-1.37-.81-1.69-1.4-.32-.59-.47-1.6-.47-3.02V15.25c0-1.47.16-2.49.47-3.07Z"/>
  <path class="cls-1" d="M401.51,8.27c-.84,0-2.02.06-3.54.19-1.58.12-2.84.19-3.77.19-.86,0-2.07-.06-3.63-.19-1.67-.12-3.01-.19-4.02-.19-.3,0-.45.29-.45.87,0,.52.15.8.45.84,2.44.31,4.11.82,5.01,1.54.9.71,1.35,1.95,1.35,3.71v26.43l-26.87-33.39c-.67,0-1.47.06-2.4.19-.91.12-1.69.19-2.34.19-.52,0-1.3-.06-2.34-.19-1.17-.12-2.08-.19-2.73-.19-.3,0-.45.28-.45.85s.13.85.39.85c2.38.33,4.01.83,4.88,1.49.87.66,1.31,1.83,1.31,3.51v.28l-.98,29.19c-.06,1.88-.51,3.15-1.37,3.8-.86.65-2.44,1.13-4.74,1.44-.33.04-.5.32-.5.84,0,.58.15.87.45.87.84,0,2.02-.06,3.54-.19,1.58-.12,2.84-.19,3.77-.19.86,0,2.07.06,3.66.19,1.69.12,3.02.19,3.99.19.3,0,.45-.29.45-.87,0-.52-.15-.79-.45-.84-2.33-.31-3.93-.79-4.83-1.44-.89-.65-1.34-1.76-1.34-3.33,0-.14,0-.3.03-.46l.39-28.68,28.76,36.11c.37.33.67.5.89.5.45,0,.67-.21.67-.62l.61-36.54c.04-1.88.49-3.16,1.35-3.82.87-.66,2.46-1.14,4.79-1.43.3-.04.45-.32.45-.84,0-.58-.15-.87-.45-.87Z"/>
  <path class="cls-1" d="M317.9,23.03c.09-.3.08-.75.08-1.07l2.46.31c-.81-.98-2.41-2.39-3.68-2.68-2.7-.62-4.49,1.78-4.73,4.22-.07.7.04,1.16.13,1.84,1.5-.23,1.59-.75,2.46-1,.48-.14,2.81-.04,3.3-1.62ZM316.44,22.51c-.45.68-1.88.52-2.61.52.29-1.5,1.4-2.47,2.92-1.84-.08.32-.17,1.11-.31,1.32Z"/>
  <path class="cls-1" d="M308.92,8.72c2.08.27,2.73-2.66.92-3.38-.45-.15-.78-.11-1.23,0-1.93.81-1.37,3.16.31,3.38ZM308.92,6.76l.61.15-.61.31v-.46Z"/>
  <path class="cls-1" d="M301.39,19.58c-1.27.29-2.87,1.7-3.68,2.68l2.46-.31c0,.32-.01.77.08,1.07.49,1.58,2.82,1.48,3.3,1.62.86.25.96.76,2.46,1,.09-.68.2-1.14.13-1.84-.24-2.44-2.03-4.84-4.73-4.22ZM301.7,22.53c-.14-.21-.23-1.01-.31-1.34,1.52-.63,2.63.34,2.92,1.84-.71,0-2.18.16-2.61-.5Z"/>
  <path class="cls-1" d="M332.56,19.31c-.76-.63-1.25-1.06-2.15-1.5l2.46.77c-.27-.6-.82-1.67-1.26-2.13-.82-.87-2.78-1.52-3.96-1.7l3.84-.61c-.85-.8-1.94-1.52-3.07-1.84,2.09-2.14,1.44-3.73.77-6.29-2.38.43-3.47.31-5.83.31.23-.54.91-1.83.67-2.4-.37-.89-2.92-.67-3.74-.67l.61-1.69-2,1.27-1.07.39-1.54-1.19-2,.88-1.54-1.18-1.8.86-.65-.74-1.23-1.84-1.69,2.92c-.51-.34-1.54-1.39-2.14-1.1-.45.22-.84,1.07-1.4,1.11-.65.05-1.3-1.07-2-.88-.64.18-1.06,1.27-1.69,1.19l-2.76-1.7.46,1.69c-.82,0-3.38-.22-3.74.67-.23.56.44,1.86.67,2.4h-3.99l-1.69-.31c-.73,1.67-1.39,4.94.61,5.99v.31c-1.36.39-1.92,1.03-3.07,1.69.66.38,3,.58,3.84.61-1.21.53-2.84.8-3.82,1.72-.52.49-1.1,1.6-1.4,2.27l2.46-.92c-1.22.95-2.45,1.77-3.52,2.92-1.81,1.95-3.36,5.3-3.39,7.98-.02,1.31-.09,2.84.61,3.99l1.69-1.69c-1.07,2.5-1.93,5.1-2.15,7.83l2.92-3.53c-.28.7-1.17,2.61-1.18,3.22-.02.75,1.17,3.12,1.58,3.84,1.01,1.77,2.11,3.22,3.75,4.47l8.14,4.54c1.01.66,2.51,1.83,3.38,2.66l1.84,1.84v-.77c1.28.58,2.08,1.82,2.9,2.92,1.67,2.23,3.24,4.5,4.63,6.91l4.93-6.91c.82-1.09,1.62-2.33,2.9-2.92v.77l1.84-1.84c.86-.83,2.37-2.01,3.38-2.66l8.14-4.54c1.64-1.25,2.74-2.7,3.75-4.47.41-.72,1.6-3.09,1.58-3.84-.02-.61-.91-2.53-1.18-3.22.96.72,2.06,2.49,2.76,3.53.21-.62-.08-1.5-.19-2.15-.42-2.41-.85-3.47-1.8-5.68l1.69,1.69c.47-.76.6-1.72.61-2.61v-1.07c0-3.68-1.98-7.23-4.76-9.56ZM331.33,20.42c-2.47-.56-5.88-1.88-8.44-2,.49-.63,2.13-.68,2.92-.74,1.73-.12,4.49,1.41,5.53,2.74ZM310.3,40.38c-.95.44-1.48.23-2.46.15,1.01-1.09,1.34-.9,2.46-.15ZM308.61,35.77c-.36-.16-.68-.29-.88-.66-.24-.45,0-1.18-.56-1.73-.77-.75-1.54.14-2.38-.2-.61-.25-2.34-2.16-1.74-2.84.27-.31,1.03-.25,1.42-.25,1.12.01,2.13.31,3.07.94.38.25,1.16,1.05,1.54,1.05s1.27-.89,1.69-1.15c1.12-.69,2.08-.86,3.38-.84,2.64.05-.3,2.9-.78,3.09-.81.33-1.5-.47-2.26.09-.65.48-.49,1.32-.63,1.7-.17.46-.53.61-.94.79l-.31-2.3h-.31l-.31,2.3ZM309.07,42.19l1.69-.17,1.69.7,2.92.57c.24,1.32.49,2.98-.92,3.68-.34-.68-.6-.83-1.23-1.23-.19,2.15-1.59,3.2-3.68,3.22-2.38.03-4.35-.42-4.61-3.22-.62.4-.89.55-1.23,1.23-1.41-.71-1.16-2.37-.92-3.68l2.92-.57,2.15-.75,1.23.22ZM315.36,40.35c-1.6.48-4.65-1.28-5.83-2.28l.54-.83.99-.74,1.38-1.35-.31-.31v-.15c.64.11,1.07.18,1.69-.1.93-.42,2.69-2.55,2.9-3.56.32-1.52-1.31-2.42-2.6-2.47-1.1-.04-2.23.26-3.22.73-.42.2-1.48.86-1.84.86s-1.29-.59-1.69-.79c-.89-.43-1.92-.76-2.92-.8-.43-.02-.96.01-1.38.13-1.42.39-2.12,1.79-1.37,3.09.63,1.1,1.89,2.8,3.21,2.96.41.1.68.03,1.07,0l-.15.27h-.15l1.23,1.37c1.07.99.81.27,1.69,1.7-1.2,1.01-4.22,2.74-5.83,2.28-1.09-.31-2.44-1.97-3.07-2.89-.32-.47-1.3-2.09-1.28-2.61.03-.77,1.08-1.18,1.96-2.76,1-1.8.73-3.16.39-5.07l-.92,1.54-.95-1.05-.99-.86-.7-.82-.61-.58c-.55-.68-.11-1.03-1.66-2.21.86-.68,2.41-1.08,2.84-2.15.14-.36.09-.84.08-1.23l1.54.31-.92-1.23c1.55-.51,2-.58,3.21-1.84.51-.54,1.03-1.21,1.42-1.84.24-.38.49-.92.92-1.11.34-.15,1.25-.12,1.66-.11,1.75.02,2.8.67,3.38.67.38,0,1.24-.34,1.69-.46.95-.24,1.19-.21,2.15-.21.4,0,.98-.04,1.32.18l1.95,2.58c1.26,1.44,1.78,1.59,3.49,2.15l-.92,1.23,1.54-.31c-.01.38-.06.87.08,1.23.43,1.07,1.98,1.47,2.84,2.15-1.55,1.18-1.11,1.53-1.66,2.21l-.61.58-.7.82-.99.86-.95,1.05-.77-1.54c-.82,1.76-.55,3.93.52,5.53.41.62,1.66,1.73,1.68,2.3.02.52-.96,2.14-1.28,2.61-.62.9-2.01,2.58-3.07,2.89ZM289.57,23.03c1.01-1.08,3.22-1.93,4.61-2.52.87-.37,1.36-.75,2.3-.4-.42.8-.94.86-1.69,1.29l-1.84,1.3c-.32.09-1.13,0-1.54,0-.62.05-1.23.21-1.84.33ZM290.34,24.41c-.6.55-4.13,2.63-4.91,2.92v.15l-.15-.15h.15c1.03-1.37,3.21-2.65,4.91-2.92ZM294.79,16.53c-1.47-.33-2.37-.25-3.84-.25l1.54-.44,1.23-.15,3.68.83,2.76-.24c-.59.67-2.17,1.31-3.07,1.12-.54-.12-1.06-.58-2.3-.86ZM293.26,29.78l.34-2,.43-3.53c.69.39.88.56.92,1.38.08,1.92-.73,2.62-1.69,4.15ZM295.57,29.07c.36-.31,1.35-1.04,1.83-.91.6.17,1.35,1.26,1.06,1.88-.14.3-.64.66-.9.85-1.73,1.26-4.51,2.55-6.6,3.03l2.6-2.46,2.02-2.4ZM292.18,27.17c-.29,3.49-4.05,7.73-7.06,9.21.14-.73.26-.88.55-1.54,1.26-2.89,1.8-2.57,3.9-4.76l2.62-2.92ZM288.19,36.11l4.76-1.27,3.53-1.59,2.46-1.47c-.78,1.17-.97,1.19-1.98,2.06l-1.24,1.05c-1.66,1.14-4.03,1.73-5.99,2.11-.97.19-2.4.44-3.38.46l1.84-1.35ZM301.55,9.83c.9-.39,3.29-.35,4.1.18.44.29.87,1.06,1.12,1.51l-5.22-1.69ZM308.76,11.97h.61l-.15.46-.46-.46ZM311.53,11.51c.9-2.34,3.01-2.01,5.07-1.84-.77.59-4.01,1.6-5.07,1.84ZM317.97,16.27l2.46.29,3.99-.87,2.76.42-2.92.27c-.6.1-1.28.2-1.84.42l-1.38.61c-.89.18-2.49-.48-3.07-1.14ZM323.26,29.79c.98,1.29,2.74,3.09,4.08,3.99-.67.18-1.52-.24-2.15-.49-1.45-.57-4.16-1.83-5.19-2.93-.9-.96.32-2.17.89-2.22.71-.07,1.97,1.12,2.37,1.66ZM323.2,25.95c-.02-.46.1-1.7.87-1.47.37.11.35.7.35,1.01.05,2.64.29,2.05.61,4.15h.15v.15l-.15-.15c-.96-.87-1.78-2.37-1.84-3.68ZM319.36,31.63c2.08,1.76,4.65,2.81,7.22,3.63l3.38.84c.59.23,1.31.83,1.84,1.21-.67.25-2.18-.09-2.92-.22-2.75-.5-5.19-1.13-7.37-2.99-.67-.57-2.15-1.53-2.15-2.48ZM326.92,30.09c-.4-.81-1.06-2.17-.81-3.07,1.12,1.67,2.42,2.89,3.84,4.3l1.41,1.41c.55.69,1.49,2.79,1.66,3.66-2.42-1.39-4.85-3.79-6.1-6.29ZM327.03,25.79l-.15-.15h.15v.15ZM326.73,22.7c-.4,0-1.22.09-1.54,0l-1.69-1.21c-.76-.46-1.41-.57-1.84-1.38.94-.38,1.41.01,2.3.37,1.67.67,3.19,1.52,4.76,2.4-.64.18-1.33-.12-2-.17ZM327.95,24.41c1.74.36,3.71,1.47,4.76,2.92h.15v.15l-.15-.15-4.91-2.76.15-.15ZM329.03,21.19v.15l-.15-.15h.15ZM328.11,7.68c.21.7.57,2.46-.34,2.79h-1.96l-.46-1.41c1.36-.9,1.2-.86,2.76-1.38ZM323.96,10.29h.31l-.31,1.23v-1.23ZM326.42,13.17c-.57.37-1.23.43-1.84.66l-1.84.8c-2.49.77-3.81.49-6.14-.5,1.49-.61,2.45-.02,3.84-.13,1.66-.12,1.94-.64,2.92-.83.97-.26,2.09-.04,3.07,0ZM320.26,11.53c-1.13.89-2.03.83-3.36.92l-1.07.13-1.84-.14,3.99-1.65,4.76-2.8c-.58,1.03-1.58,2.84-2.47,3.54ZM319.31,6.14c.12-.37.28-.99.59-1.23.56-.43,1.89-.33,2.53-.15-.91,2.04-2.05,3.1-3.99,4.15l.87-2.76ZM301.87,4.11c.68-.35,1.74.79,2.14,1.27.34-.37,1.1-1.36,1.54-1.49.64-.19,1.64.88,2,1.34l1.69-2.3,1.23,2.3c.53-.35,1.72-1.54,2.3-1.34.58.19.93,1.15,1.54,1.11.61-.04,1.31-1.16,1.97-.95.57.18.86,1.09,1.71,1.34l-.92,2.92c-1.86-.33-3.61-.21-5.37.47-.59.23-2.26,1.27-2.61,1.25l-2.3-1.19c-1.57-.64-3.87-.93-5.53-.53l-.92-2.92c.86-.23.91-.93,1.55-1.27ZM298.37,4.91c.27.21.41.76.52,1.08.3.88.68,1.85.82,2.76h.15v.15l-.15-.15c-1.83-.58-3.23-2.29-3.99-3.99.61-.17,2.14-.26,2.66.15ZM299.09,10.15c1.91,1.07,3.19,1.45,5.22,2.13-1.02.42-2.02.28-3.07.18-.82-.08-1.67-.06-2.46-.35-1.3-.48-1.96-1.59-2.58-2.74-.24-.45-.58-.87-.65-1.38,1.12.43,2.33,1.5,3.53,2.17ZM294.18,10.29l.15,1.23c-.37-.48-.51-.69-.15-1.23ZM294.95,13.15c.76.21,1.38.79,2.92.86l1.84-.16,1.84.12c-.55.53-1.11.68-1.84.86-3.41.87-4.93-.9-7.98-1.48.74-.34,2.45-.43,3.22-.21ZM290.34,10.75c-.67-1.23-.48-1.76-.31-3.07,1.2.28,2,.71,2.92,1.54l-.46,1.23-2.15.31ZM292.34,17.68c.79.06,2.43.11,2.92.74l-5.99,1.29-2.61.7c1.25-1.24,3.86-2.86,5.68-2.74ZM282.2,28.56c.39-1.59.56-3.36,1.55-4.75.86-1.2,3.9-2.26,5.36-2.47l-1.67,1.54-1.15,1.67-1.92,1.72-2.16,2.29ZM285.27,27.48v.15l-.15-.15h.15ZM283.89,33.01c.29-1.22,1.55-3.57,2.47-4.4.45-.4,1.85-1.2,2.44-1.56.76-.46,1.61-1.01,2.46-1.26-1.37,2.16-5.13,6.03-7.37,7.22ZM293.87,48.18c-2.19-1.1-4.13-1.78-5.98-3.53-1.37-1.29-2.76-3.71-3.38-5.5l6.14-.83c2.3-.51,3.42-1.02,5.53-1.93l-.3,3.84.37,4.15,1.62,6.14-3.99-2.33ZM301.7,54.19c-.18-.5-.13-.64.15-1.07l-.15,1.07ZM307.07,58.95l-.15-.15-2.28-2.92c-.29-.37-1.09-1.22-1.23-1.54-.24-.55.18-1.18-.54-2.15-.54-.73-1.3-1.27-2.08-1.71-.46-.26-1.25-.57-1.56-.96-.42-.52-.89-2.31-1.07-3.01-.68-2.73-.78-4.58-.75-7.37,0-.58.1-1.62.31-2.15,1.77,2.42,1.84,3.09,4.61,4.76-.23.15-.47.28-.64.51-.22.3-.32.82-.4,1.18-.3,1.4-.26,2.81.66,3.99.83,1.06,1.58,1.05,1.82,1.58.11.25.09,1,.14,1.34.09.76.29,1.73.55,2.46.66,1.87,2.05,3.19,2.48,5.99h.15v.15ZM309.07,60.49l-1.6-4.76c-1.12-2.61-2.08-2.99-2.08-6.14l2,.73c2.23.54,3.55.04,5.53-.88-.17,3.61-1.22,3.82-2.29,6.6l-1.54,4.45ZM316.44,53.12l.15,1.07c-.32-.43-.35-.57-.15-1.07ZM319.05,49.4c-.35.48-1.02.72-1.54,1-.81.44-1.74,1.03-2.26,1.8-.69,1.02-.28,1.58-.52,2.14-.13.3-.94,1.2-1.21,1.54-.62.78-1.45,2.03-2.15,2.61.18-1.14.79-2.68,1.36-3.68.37-.65.53-.79.85-1.54.56-1.32.8-3.17.86-4.61,2.06-.66,2.87-2.75,2.52-4.76-.16-.89-.18-1.69-1.13-2l2.44-2,2.32-3.07c.26,3.23.29,6.34-.48,9.52-.16.67-.69,2.54-1.05,3.04ZM330.25,44.65c-1.85,1.74-3.79,2.43-5.98,3.53l-3.99,2.33.76-2.15c.65-2.06,1.23-5.06,1.22-7.22v-2.46c-.08-.67-.28-1.66-.14-2.3,1.56.67,1.92.97,3.68,1.47,2.68.76,5.11.93,7.83,1.29-.62,1.79-2.01,4.21-3.38,5.5ZM328.73,28.1c-.47-.53-1.54-1.6-1.54-2.3.84.45,4.03,2.27,4.59,2.8.93.87,2.13,3.17,2.47,4.42-1.75-.92-4.19-3.41-5.52-4.91ZM335.78,28.4h.15v.15l-.15-.15-2.15-2.3-1.77-1.58c-.5-.59-.87-1.88-2.84-3.03.73-.24,1.76.26,2.46.53.78.29,1.98.78,2.56,1.37,1,.99,1.73,3.62,1.74,5.02Z"/>
</svg>