<?xml version="1.0" encoding="UTF-8"?>
<svg id="Layer_1" xmlns="http://www.w3.org/2000/svg" viewBox="0 0 401.95 64.79">
  <defs>
    <style>
      .cls-1 {
        fill: #fff;
      }
    </style>
  </defs>
  <g>
    <path class="cls-1" d="M39.73,18.47c0,.39-.33.59-1,.59-.3,0-.48-.14-.56-.43-.8-2.91-1.94-4.98-3.43-6.18-1.49-1.21-3.69-1.81-6.61-1.81h-2.62c-.91,0-1.53.17-1.87.5-.33.33-.5.95-.5,1.86v31.47c0,1.43.16,2.43.49,3.02.33.59.9,1.05,1.73,1.39.83.34,2.01.62,3.56.82.3.04.45.32.45.84,0,.58-.15.87-.45.87-1.25,0-2.73-.06-4.46-.19-1.64-.12-3.01-.19-4.12-.19s-2.54.06-4.2.19c-1.73.12-3.22.19-4.46.19-.3,0-.45-.29-.45-.87,0-.52.15-.79.45-.84,2.25-.29,3.78-.75,4.59-1.39s1.21-1.92,1.21-3.84V12.98c0-.91-.17-1.53-.5-1.86-.33-.33-.97-.5-1.9-.5h-2.18c-2.62,0-5,.74-7.14,2.22-2.14,1.48-3.53,3.39-4.18,5.75-.09.31-.3.46-.61.46-.63,0-.95-.23-.95-.68,1.04-3.12,2.03-6.65,2.96-10.6,2.53.58,8.32.87,17.37.87s15.2-.29,17.73-.87c.26,2.69.82,6.25,1.67,10.7Z"/>
    <path class="cls-1" d="M83.2,50.52c0,.58-.15.87-.45.87-1.25,0-2.72-.06-4.44-.19-1.64-.12-3.02-.19-4.16-.19s-2.52.06-4.16.19c-1.73.12-3.23.19-4.49.19-.3,0-.45-.29-.45-.87,0-.52.15-.79.45-.84,2.25-.29,3.78-.75,4.59-1.4.81-.64,1.21-1.92,1.21-3.85V15.25c0-1.45-.16-2.47-.49-3.06-.33-.59-.9-1.05-1.72-1.4-.82-.34-2.02-.62-3.6-.82-.3,0-.45-.28-.45-.85s.15-.85.45-.85c1.26,0,2.76.06,4.49.19,1.64.12,3.02.19,4.16.19s2.52-.06,4.16-.19c1.71-.12,3.19-.19,4.44-.19.3,0,.45.28.45.85s-.15.85-.45.85c-1.56.21-2.75.48-3.57.82-.82.34-1.39.8-1.7,1.38-.32.58-.47,1.6-.47,3.07v29.19c0,1.43.16,2.43.47,3.02.32.59.88,1.05,1.69,1.4.81.34,1.99.61,3.56.82.32.04.47.32.47.84Z"/>
    <path class="cls-1" d="M156.43,9.14c0,.52-.15.8-.45.84-2.33.29-3.92.77-4.79,1.43-.86.66-1.32,1.94-1.35,3.82l-.61,36.54c0,.41-.22.62-.67.62-.22,0-.52-.17-.89-.5l-28.76-36.11-.39,28.68c-.02.17-.03.32-.03.46,0,1.57.45,2.68,1.34,3.33.89.65,2.5,1.13,4.83,1.44.3.04.45.32.45.84,0,.58-.15.87-.45.87-.97,0-2.3-.06-3.99-.19-1.58-.12-2.8-.19-3.65-.19-.93,0-2.19.06-3.77.19-1.53.12-2.71.19-3.54.19-.3,0-.45-.29-.45-.87,0-.52.17-.79.5-.84,2.31-.31,3.89-.79,4.74-1.44.85-.65,1.31-1.92,1.37-3.8l.98-29.19v-.28c0-1.67-.44-2.84-1.31-3.51-.87-.66-2.5-1.16-4.88-1.49-.26,0-.39-.28-.39-.85s.15-.85.45-.85c.65,0,1.56.06,2.73.19,1.04.12,1.82.19,2.34.19.65,0,1.43-.06,2.34-.19.93-.12,1.73-.19,2.4-.19l26.87,33.39V15.22c0-1.76-.45-3-1.35-3.71-.9-.71-2.57-1.23-5.01-1.54-.3-.04-.45-.32-.45-.84,0-.58.15-.87.45-.87,1,0,2.34.06,4.02.19,1.56.12,2.77.19,3.63.19.93,0,2.19-.06,3.77-.19,1.52-.12,2.71-.19,3.54-.19.3,0,.45.29.45.87Z"/>
    <path class="cls-1" d="M212.96,39.98c-.87,3.64-1.56,7.44-2.06,11.41-7.12-.25-12.19-.37-15.21-.37s-7.98.12-15.01.37c-.3,0-.45-.29-.45-.87,0-.52.15-.79.45-.84,2.25-.29,3.78-.75,4.59-1.4.81-.64,1.21-1.92,1.21-3.85V15.25c0-1.45-.16-2.47-.49-3.06-.33-.59-.9-1.05-1.72-1.4-.82-.34-2.02-.62-3.6-.82-.3,0-.45-.28-.45-.85s.15-.85.45-.85c1.25,0,2.73.06,4.46.19,1.66.12,3.05.19,4.19.19s2.52-.06,4.16-.19c1.71-.12,3.19-.19,4.44-.19.3,0,.45.28.45.85s-.15.85-.45.85c-1.56.21-2.75.48-3.57.82-.82.34-1.39.8-1.7,1.38-.32.58-.47,1.6-.47,3.07v30.12c0,2.44,1.08,3.66,3.24,3.66h5.52c2.29,0,4.22-.68,5.8-2.03,1.58-1.35,3.14-3.88,4.69-7.58.07-.17.25-.25.53-.25.24,0,.47.08.68.25.21.17.32.35.32.56Z"/>
    <path class="cls-1" d="M256.62,50.52c0,.58-.15.87-.45.87-1.25,0-2.72-.06-4.44-.19-1.64-.12-3.02-.19-4.16-.19s-2.52.06-4.16.19c-1.73.12-3.23.19-4.49.19-.3,0-.45-.29-.45-.87,0-.52.15-.79.45-.84,2.25-.29,3.78-.75,4.59-1.4.81-.64,1.21-1.92,1.21-3.85V15.25c0-1.45-.16-2.47-.49-3.06-.33-.59-.9-1.05-1.72-1.4-.82-.34-2.02-.62-3.6-.82-.3,0-.45-.28-.45-.85s.15-.85.45-.85c1.26,0,2.76.06,4.49.19,1.64.12,3.02.19,4.16.19s2.52-.06,4.16-.19c1.71-.12,3.19-.19,4.44-.19.3,0,.45.28.45.85s-.15.85-.45.85c-1.56.21-2.75.48-3.57.82-.82.34-1.39.8-1.7,1.38-.32.58-.47,1.6-.47,3.07v29.19c0,1.43.16,2.43.47,3.02.32.59.88,1.05,1.69,1.4.81.34,2,.61,3.56.82.32.04.47.32.47.84Z"/>
    <path class="cls-1" d="M401.95,9.14c0,.52-.15.8-.45.84-2.33.29-3.92.77-4.79,1.43-.87.66-1.32,1.94-1.35,3.82l-.61,36.54c0,.41-.22.62-.67.62-.22,0-.52-.17-.89-.5l-28.76-36.11-.39,28.68c-.02.17-.03.32-.03.46,0,1.57.45,2.68,1.34,3.33.89.65,2.5,1.13,4.83,1.44.3.04.45.32.45.84,0,.58-.15.87-.45.87-.97,0-2.3-.06-3.99-.19-1.58-.12-2.8-.19-3.66-.19-.93,0-2.19.06-3.77.19-1.53.12-2.71.19-3.54.19-.3,0-.45-.29-.45-.87,0-.52.17-.79.5-.84,2.31-.31,3.89-.79,4.74-1.44.86-.65,1.31-1.92,1.37-3.8l.98-29.19v-.28c0-1.67-.44-2.84-1.31-3.51-.88-.66-2.5-1.16-4.88-1.49-.26,0-.39-.28-.39-.85s.15-.85.45-.85c.65,0,1.56.06,2.73.19,1.04.12,1.82.19,2.34.19.65,0,1.43-.06,2.34-.19.93-.12,1.73-.19,2.4-.19l26.87,33.39V15.22c0-1.76-.45-3-1.35-3.71-.9-.71-2.57-1.23-5.01-1.54-.3-.04-.45-.32-.45-.84,0-.58.15-.87.45-.87,1,0,2.34.06,4.02.19,1.56.12,2.77.19,3.63.19.93,0,2.18-.06,3.77-.19,1.53-.12,2.71-.19,3.54-.19.3,0,.45.29.45.87Z"/>
  </g>
  <path id="Selection" class="cls-1" d="M309.07,0l-1.69,2.92c-.51-.34-1.54-1.39-2.14-1.1-.45.22-.84,1.07-1.4,1.11-.65.05-1.3-1.07-2-.88-.64.18-1.06,1.27-1.69,1.19l-2.76-1.7.46,1.69c-.82,0-3.38-.22-3.74.67-.23.56.44,1.86.67,2.4h-3.99l-1.69-.31c-.73,1.67-1.39,4.94.61,5.99v.31c-1.36.39-1.92,1.03-3.07,1.69.66.38,3,.58,3.84.61-1.21.53-2.84.8-3.82,1.72-.52.49-1.1,1.6-1.4,2.27l2.46-.92c-1.22.95-2.45,1.77-3.52,2.92-1.81,1.95-3.36,5.3-3.39,7.98-.02,1.31-.09,2.84.61,3.99l1.69-1.69c-1.07,2.5-1.93,5.1-2.15,7.83l2.92-3.53c-.28.7-1.17,2.61-1.18,3.22-.02.75,1.17,3.12,1.58,3.84,1.01,1.77,2.11,3.22,3.75,4.47l8.14,4.54c1.01.66,2.51,1.83,3.38,2.66l1.84,1.84v-.77c1.28.58,2.08,1.82,2.9,2.92,1.67,2.23,3.24,4.5,4.63,6.91l4.93-6.91c.82-1.09,1.62-2.33,2.9-2.92v.77l1.84-1.84c.86-.83,2.37-2.01,3.38-2.66l8.14-4.54c1.64-1.25,2.74-2.7,3.75-4.47.41-.72,1.6-3.09,1.58-3.84-.02-.61-.91-2.53-1.18-3.22.96.72,2.06,2.49,2.76,3.53.21-.62-.08-1.5-.19-2.15-.42-2.41-.85-3.47-1.8-5.68l1.69,1.69c.47-.76.6-1.72.61-2.61v-1.07c0-3.68-1.98-7.23-4.76-9.56-.76-.63-1.25-1.06-2.15-1.5l2.46.77c-.27-.6-.82-1.67-1.26-2.13-.82-.87-2.78-1.52-3.96-1.7l3.84-.61c-.85-.8-1.94-1.52-3.07-1.84,2.09-2.14,1.44-3.73.77-6.29-2.38.43-3.47.31-5.83.31.23-.54.91-1.83.67-2.4-.37-.89-2.92-.67-3.74-.67l.61-1.69-2,1.27-1.07.39-1.54-1.19-2,.88-1.54-1.18-1.8.86-.65-.74-1.23-1.84ZM309.22,2.92l1.23,2.3c.53-.35,1.72-1.54,2.3-1.34.58.19.93,1.15,1.54,1.11.61-.04,1.31-1.16,1.97-.95.57.18.86,1.09,1.71,1.34l-.92,2.92c-1.86-.33-3.61-.21-5.37.47-.59.23-2.26,1.27-2.61,1.25l-2.3-1.19c-1.57-.64-3.87-.93-5.53-.53l-.92-2.92c.86-.23.91-.93,1.55-1.27.68-.35,1.74.79,2.14,1.27.34-.37,1.1-1.36,1.54-1.49.64-.19,1.64.88,2,1.34l1.69-2.3ZM299.7,8.75c-1.83-.58-3.23-2.29-3.99-3.99.61-.17,2.14-.26,2.66.15.27.21.41.76.52,1.08.3.88.68,1.85.82,2.76ZM322.43,4.76c-.91,2.04-2.05,3.1-3.99,4.15l.87-2.76c.12-.37.28-.99.59-1.23.56-.43,1.89-.33,2.53-.15ZM308.61,5.34c-1.93.81-1.37,3.16.31,3.38,2.08.27,2.73-2.66.92-3.38-.45-.15-.78-.11-1.23,0ZM309.53,6.91l-.61.31v-.46l.61.15ZM292.95,9.21l-.46,1.23-2.15.31c-.67-1.23-.48-1.76-.31-3.07,1.2.28,2,.71,2.92,1.54ZM328.11,7.68c.21.7.57,2.46-.34,2.79h-1.96l-.46-1.41c1.36-.9,1.2-.86,2.76-1.38ZM295.56,7.98c1.12.43,2.33,1.5,3.53,2.17,1.91,1.07,3.19,1.45,5.22,2.13-1.02.42-2.02.28-3.07.18-.82-.08-1.67-.06-2.46-.35-1.3-.48-1.96-1.59-2.58-2.74-.24-.45-.58-.87-.65-1.38ZM322.73,7.98c-.58,1.03-1.58,2.84-2.47,3.54-1.13.89-2.03.83-3.36.92l-1.07.13-1.84-.14,3.99-1.65,4.76-2.8ZM299.86,8.75v.15l-.15-.15h.15ZM306.77,11.51l-5.22-1.69c.9-.39,3.29-.35,4.1.18.44.29.87,1.06,1.12,1.51ZM316.59,9.67c-.77.59-4.01,1.6-5.07,1.84.9-2.34,3.01-2.01,5.07-1.84ZM294.18,10.29l.15,1.23c-.37-.48-.51-.69-.15-1.23ZM324.27,10.29l-.31,1.23v-1.23h.31ZM322.27,11.67l-.46.46.46-.46ZM309.38,11.97l-.15.46-.46-.46h.61ZM301.55,13.97c-.55.53-1.11.68-1.84.86-3.41.87-4.93-.9-7.98-1.48.74-.34,2.45-.43,3.22-.21.76.21,1.38.79,2.92.86l1.84-.16,1.84.12ZM326.42,13.17c-.57.37-1.23.43-1.84.66l-1.84.8c-2.49.77-3.81.49-6.14-.5,1.49-.61,2.45-.02,3.84-.13,1.66-.12,1.94-.64,2.92-.83.97-.26,2.09-.04,3.07,0ZM319.66,18.73l-.92,1.23,1.54-.31c-.01.38-.06.87.08,1.23.43,1.07,1.98,1.47,2.84,2.15-1.55,1.18-1.11,1.53-1.66,2.21l-.61.58-.7.82-.99.86-.95,1.05-.77-1.54c-.82,1.76-.55,3.93.52,5.53.41.62,1.66,1.73,1.68,2.3.02.52-.96,2.14-1.28,2.61-.62.9-2.01,2.58-3.07,2.89-1.6.48-4.65-1.28-5.83-2.28l.54-.83.99-.74,1.38-1.35-.31-.31v-.15c.64.11,1.07.18,1.69-.1.93-.42,2.69-2.55,2.9-3.56.32-1.52-1.31-2.42-2.6-2.47-1.1-.04-2.23.26-3.22.73-.42.2-1.48.86-1.84.86s-1.29-.59-1.69-.79c-.89-.43-1.92-.76-2.92-.8-.43-.02-.96.01-1.38.13-1.42.39-2.12,1.79-1.37,3.09.63,1.1,1.89,2.8,3.21,2.96.41.1.68.03,1.07,0l-.15.27h-.15l1.23,1.37c1.07.99.81.27,1.69,1.7-1.2,1.01-4.22,2.74-5.83,2.28-1.09-.31-2.44-1.97-3.07-2.89-.32-.47-1.3-2.09-1.28-2.61.03-.77,1.08-1.18,1.96-2.76,1-1.8.73-3.16.39-5.07l-.92,1.54-.95-1.05-.99-.86-.7-.82-.61-.58c-.55-.68-.11-1.03-1.66-2.21.86-.68,2.41-1.08,2.84-2.15.14-.36.09-.84.08-1.23l1.54.31-.92-1.23c1.55-.51,2-.58,3.21-1.84.51-.54,1.03-1.21,1.42-1.84.24-.38.49-.92.92-1.11.34-.15,1.25-.12,1.66-.11,1.75.02,2.8.67,3.38.67.38,0,1.24-.34,1.69-.46.95-.24,1.19-.21,2.15-.21.4,0,.98-.04,1.32.18l1.95,2.58c1.26,1.44,1.78,1.59,3.49,2.15ZM300.17,16.27c-.59.67-2.17,1.31-3.07,1.12-.54-.12-1.06-.58-2.3-.86-1.47-.33-2.37-.25-3.84-.25l1.54-.44,1.23-.15,3.68.83,2.76-.24ZM327.19,16.12l-2.92.27c-.6.1-1.28.2-1.84.42l-1.38.61c-.89.18-2.49-.48-3.07-1.14l2.46.29,3.99-.87,2.76.42ZM295.25,18.42l-5.99,1.29-2.61.7c1.25-1.24,3.86-2.86,5.68-2.74.79.06,2.43.11,2.92.74ZM331.33,20.42c-2.47-.56-5.88-1.88-8.44-2,.49-.63,2.13-.68,2.92-.74,1.73-.12,4.49,1.41,5.53,2.74ZM297.71,22.26l2.46-.31c0,.32-.01.77.08,1.07.49,1.58,2.82,1.48,3.3,1.62.86.25.96.76,2.46,1,.09-.68.2-1.14.13-1.84-.24-2.44-2.03-4.84-4.73-4.22-1.27.29-2.87,1.7-3.68,2.68ZM312.14,25.64c1.5-.23,1.59-.75,2.46-1,.48-.14,2.81-.04,3.3-1.62.09-.3.08-.75.08-1.07l2.46.31c-.81-.98-2.41-2.39-3.68-2.68-2.7-.62-4.49,1.78-4.73,4.22-.07.7.04,1.16.13,1.84ZM296.48,20.11c-.42.8-.94.86-1.69,1.29l-1.84,1.3c-.32.09-1.13,0-1.54,0-.62.05-1.23.21-1.84.33,1.01-1.08,3.22-1.93,4.61-2.52.87-.37,1.36-.75,2.3-.4ZM328.72,22.88c-.64.18-1.33-.12-2-.17-.4,0-1.22.09-1.54,0l-1.69-1.21c-.76-.46-1.41-.57-1.84-1.38.94-.38,1.41.01,2.3.37,1.67.67,3.19,1.52,4.76,2.39ZM304.31,23.03c-.71,0-2.18.16-2.61-.5-.14-.21-.23-1.01-.31-1.34,1.52-.63,2.63.34,2.92,1.84ZM316.75,21.19c-.08.32-.17,1.11-.31,1.32-.45.68-1.88.52-2.61.52.29-1.5,1.4-2.47,2.92-1.84ZM329.03,21.19v.15l-.15-.15h.15ZM289.11,21.34l-1.67,1.54-1.15,1.67-1.92,1.72-2.16,2.29c.39-1.59.56-3.36,1.55-4.75.86-1.2,3.9-2.26,5.36-2.47ZM335.78,28.4l-2.15-2.3-1.77-1.58c-.5-.59-.87-1.88-2.84-3.03.73-.24,1.76.26,2.46.53.78.29,1.98.78,2.56,1.37,1,.99,1.73,3.62,1.74,5.02ZM293.26,29.78l.34-2,.43-3.53c.69.39.88.56.92,1.38.08,1.92-.73,2.62-1.69,4.15ZM325.04,29.63c-.96-.87-1.78-2.37-1.84-3.68-.02-.46.1-1.7.87-1.47.37.11.35.7.35,1.01.05,2.64.29,2.05.61,4.15ZM290.34,24.41c-.6.55-4.13,2.63-4.91,2.92,1.03-1.37,3.21-2.65,4.91-2.92ZM327.95,24.41c1.74.36,3.71,1.47,4.76,2.92l-4.91-2.76.15-.15ZM327.03,25.64v.15l-.15-.15h.15ZM291.26,25.79c-1.37,2.16-5.13,6.03-7.37,7.22.29-1.22,1.55-3.57,2.47-4.4.45-.4,1.85-1.2,2.44-1.56.76-.46,1.61-1.01,2.46-1.26ZM327.19,25.79c.84.45,4.03,2.27,4.59,2.8.93.87,2.13,3.17,2.47,4.42-1.75-.92-4.19-3.41-5.52-4.91-.47-.53-1.54-1.6-1.54-2.3ZM326.11,27.02c1.12,1.67,2.42,2.89,3.84,4.3l1.41,1.41c.55.69,1.49,2.79,1.66,3.66-2.42-1.39-4.85-3.79-6.1-6.29-.4-.81-1.06-2.17-.81-3.07ZM292.18,27.17c-.29,3.49-4.05,7.73-7.06,9.21.14-.73.26-.88.55-1.54,1.26-2.89,1.8-2.57,3.9-4.76l2.62-2.92ZM285.43,27.33v.15l-.15-.15h.15ZM332.87,27.33v.15l-.15-.15h.15ZM285.27,27.48v.15l-.15-.15h.15ZM290.95,33.93l2.6-2.46,2.02-2.4c.36-.31,1.35-1.04,1.83-.91.6.17,1.35,1.26,1.06,1.88-.14.3-.64.66-.9.85-1.73,1.26-4.51,2.55-6.6,3.03ZM327.34,33.78c-.67.18-1.52-.24-2.15-.49-1.45-.57-4.16-1.83-5.19-2.93-.9-.96.32-2.17.89-2.22.71-.07,1.97,1.12,2.37,1.65.98,1.29,2.74,3.09,4.08,3.99ZM335.94,28.4v.15l-.15-.15h.15ZM325.19,29.63v.15l-.15-.15h.15ZM309.53,35.77l-.31-2.3h-.31l-.31,2.3c-.36-.16-.68-.29-.88-.66-.24-.45,0-1.18-.56-1.73-.77-.75-1.54.14-2.38-.2-.61-.25-2.34-2.16-1.74-2.84.27-.31,1.03-.25,1.42-.25,1.12.01,2.13.31,3.07.94.38.25,1.16,1.05,1.54,1.05s1.27-.89,1.69-1.15c1.12-.69,2.08-.86,3.38-.84,2.64.05-.3,2.9-.78,3.09-.81.33-1.5-.47-2.26.09-.65.48-.49,1.32-.63,1.7-.17.46-.53.61-.94.79ZM319.36,31.63c2.08,1.76,4.65,2.81,7.22,3.63l3.38.84c.59.23,1.31.83,1.84,1.21-.67.25-2.18-.09-2.92-.22-2.75-.5-5.19-1.13-7.37-2.99-.67-.57-2.15-1.53-2.15-2.48ZM298.94,31.78c-.78,1.17-.97,1.19-1.98,2.06l-1.24,1.05c-1.66,1.14-4.03,1.73-5.99,2.11-.97.19-2.4.44-3.38.46l1.84-1.35,4.76-1.27,3.53-1.59,2.46-1.47ZM296.17,36.39l-.3,3.84.37,4.15,1.62,6.14-3.99-2.33c-2.19-1.1-4.13-1.78-5.98-3.53-1.37-1.29-2.76-3.71-3.38-5.5l6.14-.83c2.3-.51,3.42-1.02,5.53-1.93ZM322.12,36.39c1.56.67,1.92.97,3.68,1.47,2.68.76,5.11.93,7.83,1.29-.62,1.79-2.01,4.21-3.38,5.5-1.85,1.74-3.79,2.43-5.98,3.53l-3.99,2.33.76-2.15c.65-2.06,1.23-5.06,1.22-7.22v-2.46c-.08-.67-.28-1.66-.14-2.3ZM320.58,36.85c.26,3.23.29,6.34-.48,9.52-.16.67-.69,2.54-1.05,3.04-.35.48-1.02.72-1.54,1-.81.44-1.74,1.03-2.26,1.8-.69,1.02-.28,1.58-.52,2.14-.13.3-.94,1.2-1.21,1.54-.62.78-1.45,2.03-2.15,2.61.18-1.14.79-2.68,1.36-3.68.37-.65.53-.79.85-1.54.56-1.32.8-3.17.86-4.61,2.06-.66,2.87-2.75,2.52-4.76-.16-.89-.18-1.69-1.13-2l2.44-2,2.32-3.07ZM297.71,37c1.77,2.42,1.84,3.09,4.61,4.76-.23.15-.47.28-.64.51-.22.3-.32.82-.4,1.18-.3,1.4-.26,2.81.66,3.99.83,1.06,1.58,1.05,1.82,1.58.11.25.09,1,.14,1.34.09.76.29,1.73.55,2.46.66,1.87,2.05,3.19,2.48,5.99l-2.28-2.92c-.29-.37-1.09-1.22-1.23-1.54-.24-.55.18-1.18-.54-2.15-.54-.73-1.3-1.27-2.08-1.71-.46-.26-1.25-.57-1.56-.96-.42-.52-.89-2.31-1.07-3.01-.68-2.73-.78-4.58-.75-7.37,0-.58.1-1.62.31-2.15ZM310.3,40.38c-.95.44-1.48.23-2.46.15,1.01-1.09,1.34-.9,2.46-.15ZM315.36,43.29c.24,1.32.49,2.98-.92,3.68-.34-.68-.6-.83-1.23-1.23-.19,2.15-1.59,3.2-3.68,3.22-2.38.03-4.35-.42-4.61-3.22-.62.4-.89.55-1.23,1.23-1.41-.71-1.16-2.37-.92-3.68l2.92-.57,2.15-.75,1.23.22,1.69-.17,1.69.7,2.92.57ZM312.91,49.44c-.17,3.61-1.22,3.82-2.29,6.6l-1.54,4.45-1.6-4.76c-1.12-2.61-2.08-2.99-2.08-6.14l2,.73c2.23.54,3.55.04,5.53-.88ZM301.85,53.12l-.15,1.07c-.18-.5-.13-.64.15-1.07ZM316.44,53.12l.15,1.07c-.32-.43-.35-.57-.15-1.07ZM307.07,58.8v.15l-.15-.15h.15Z"/>
</svg>